<svg width="185" height="127" viewBox="0 0 185 127" fill="none" xmlns="http://www.w3.org/2000/svg">
<path d="M21.2227 86.9108L0 124.225C4.04242 126.402 15.6255 128.47 28.6856 119.328L51.0744 79.6811C37.4546 70.5391 25.4983 80.6917 21.2227 86.9108Z" fill="#363435"/>
<path d="M52.2407 32.6503L24.0215 81.859C35.4491 69.9649 43.6117 72.2971 52.7071 78.3607C54.8061 79.2936 51.3078 79.76 70.898 112.177C78.9305 125.469 96.2408 126.403 104.248 125.004L52.2407 32.6503Z" fill="#EC3237"/>
<path d="M137.831 97.7177C117.867 97.5311 113.188 115.053 113.343 123.838C108.912 107.202 107.419 73.9296 136.898 73.9296H149.258C152.29 73.9296 158.121 70.6646 158.121 63.6681C158.121 58.3041 152.523 55.5055 149.725 55.2723C149.103 55.1168 143.288 54.8059 125.004 54.8059C106.72 54.8059 101.527 38.6362 101.216 30.5513C104.248 30.5513 115.847 31.7351 137.831 30.5513C168.149 28.9188 183.52 41.1373 184.941 66.4667C186.34 91.4208 162.785 97.9509 137.831 97.7177Z" fill="#EC3237"/>
<ellipse cx="77.4278" cy="23.7881" rx="7.46293" ry="7.46292" fill="#EC3237"/>
<ellipse cx="93.0534" cy="4.43111" rx="4.43111" ry="4.43111" fill="#EC3237"/>
</svg>
